<svg width="28" height="29" viewBox="0 0 28 29" fill="none" xmlns="http://www.w3.org/2000/svg">
<path d="M28 9.28C28 4.90537 28 2.71805 26.6878 1.35902C25.3757 0 23.2638 0 19.04 0H8.96C4.73621 0 2.62432 0 1.31216 1.35902C7.15256e-07 2.71805 0 4.90537 0 9.28V19.72C0 24.0946 7.15256e-07 26.2819 1.31216 27.641C2.62432 29 4.73621 29 8.96 29H19.04C23.2638 29 25.3757 29 26.6878 27.641C28 26.2819 28 24.0946 28 19.72V9.28Z" fill="white"/>
<path d="M24.64 7.73893C24.64 5.64952 24.64 4.60482 23.9808 4.08249C23.3216 3.56016 22.348 3.83349 20.4009 4.38015L17.1142 5.3029C15.9212 5.63786 15.3247 5.80533 14.979 6.27333C14.6333 6.74132 14.6333 7.38144 14.6333 8.66168V16.6333C14.6333 18.7227 14.6333 19.7674 15.2926 20.2897C15.9518 20.812 16.9253 20.5387 18.8724 19.9921L22.1591 19.0693C23.3521 18.7344 23.9486 18.5669 24.2943 18.0989C24.64 17.6309 24.64 16.9908 24.64 15.7105V7.73893Z" fill="black"/>
<path d="M3.36 9.27561C3.36 6.48139 3.36 5.08427 4.24184 4.38789C5.12369 3.69151 6.42449 4.06141 9.02609 4.80119L9.94609 5.06279C11.5304 5.51331 12.3226 5.73856 12.7813 6.36167C13.24 6.98477 13.24 7.83559 13.24 9.53722V15.0966C13.24 17.8908 13.24 19.2879 12.3582 19.9843C11.4763 20.6807 10.1755 20.3108 7.5739 19.571L6.65391 19.3094C5.06958 18.8589 4.27741 18.6336 3.8187 18.0105C3.36 17.3874 3.36 16.5366 3.36 14.835V9.27561Z" fill="black"/>
<path d="M3.36 7.72924C3.36 5.6438 3.36 4.60108 4.01785 4.07873C4.6757 3.55638 5.64794 3.82712 7.59241 4.36859L10.9247 5.29652C12.1208 5.62959 12.7188 5.79613 13.0655 6.26455C13.4123 6.73296 13.4123 7.37437 13.4123 8.65717V16.5776C13.4123 18.6631 13.4123 19.7058 12.7544 20.2281C12.0966 20.7505 11.1243 20.4798 9.17985 19.9383L5.84759 19.0103C4.6515 18.6773 4.05346 18.5107 3.70673 18.0423C3.36 17.5739 3.36 16.9325 3.36 15.6497V7.72924Z" fill="black"/>
</svg>
