<svg width="30" height="30" viewBox="0 0 30 30" fill="none" xmlns="http://www.w3.org/2000/svg">
<path d="M30 9.6C30 5.07452 30 2.81178 28.5941 1.40589C27.1882 0 24.9255 0 20.4 0H9.6C5.07452 0 2.81178 0 1.40589 1.40589C0 2.81178 -1.90735e-06 5.07452 -1.90735e-06 9.6V20.4C-1.90735e-06 24.9255 0 27.1882 1.40589 28.5941C2.81178 30 5.07452 30 9.6 30H20.4C24.9255 30 27.1882 30 28.5941 28.5941C30 27.1882 30 24.9255 30 20.4V9.6Z" fill="black"/>
<path d="M26.4 8.00579C26.4 5.84433 26.4 4.7636 25.6937 4.22327C24.9874 3.68293 23.9443 3.96568 21.8581 4.53119L18.3367 5.48576C17.0584 5.83226 16.4193 6.00552 16.0489 6.48965C15.6786 6.97378 15.6786 7.63598 15.6786 8.96036V17.2068C15.6786 19.3683 15.6786 20.449 16.3849 20.9894C17.0912 21.5297 18.1343 21.2469 20.2204 20.6814L23.7419 19.7269C25.0201 19.3804 25.6593 19.2071 26.0296 18.723C26.4 18.2388 26.4 17.5767 26.4 16.2523V8.00579Z" fill="white"/>
<path d="M3.6 9.59546C3.6 6.70488 3.6 5.25959 4.54483 4.5392C5.48967 3.81881 6.88338 4.20145 9.67081 4.96675L10.6565 5.23737C12.354 5.70342 13.2028 5.93645 13.6942 6.58103C14.1857 7.22562 14.1857 8.10578 14.1857 9.86609V15.6172C14.1857 18.5077 14.1857 19.953 13.2409 20.6734C12.296 21.3938 10.9023 21.0112 8.1149 20.2459L7.12918 19.9753C5.43169 19.5092 4.58294 19.2762 4.09147 18.6316C3.6 17.987 3.6 17.1068 3.6 15.3465V9.59546Z" fill="white"/>
<path d="M3.6 7.99576C3.6 5.83842 3.6 4.75974 4.30484 4.21938C5.00968 3.67901 6.05136 3.95909 8.13472 4.51923L11.705 5.47916C12.9865 5.82371 13.6273 5.99599 13.9988 6.48056C14.3703 6.96514 14.3703 7.62865 14.3703 8.95569V17.1493C14.3703 19.3066 14.3703 20.3853 13.6654 20.9257C12.9606 21.466 11.9189 21.186 9.83556 20.6258L6.26528 19.6659C4.98375 19.3213 4.34299 19.149 3.97149 18.6645C3.6 18.1799 3.6 17.5164 3.6 16.1893V7.99576Z" fill="white"/>
</svg>
